<?xml version="1.0" encoding="utf-8"?>
<!-- Generator: Adobe Illustrator 26.0.3, SVG Export Plug-In . SVG Version: 6.00 Build 0)  -->
<svg version="1.1" id="Layer_1" xmlns="http://www.w3.org/2000/svg" xmlns:xlink="http://www.w3.org/1999/xlink" x="0px" y="0px"
	 viewBox="0 0 1000 1000" style="enable-background:new 0 0 1000 1000;" xml:space="preserve">
<style type="text/css">
	.st0{fill:#39037E;}
	.st1{fill:#613598;}
	.st2{fill:#FFFFFF;}
</style>
<g>
	<path class="st0" d="M569.13,456.34c1.17,0,2.22,0.16,3.12,0.47c0.91,0.31,1.68,0.71,2.3,1.2c0.63,0.48,1.1,1.01,1.43,1.57
		c0.33,0.56,0.5,1.11,0.52,1.62l-0.15,0.36l-0.34,0.15h-4.7c-0.22,0-0.39-0.03-0.53-0.09l-0.41-0.28c-0.08-0.08-0.22-0.17-0.43-0.27
		c-0.21-0.1-0.48-0.15-0.81-0.15c-0.41,0-0.7,0.06-0.87,0.18c-0.17,0.12-0.26,0.28-0.26,0.48l0.11,0.3c0.07,0.09,0.2,0.18,0.4,0.27
		c0.2,0.08,0.46,0.16,0.8,0.23c0.34,0.07,0.77,0.14,1.3,0.2c1.17,0.14,2.17,0.34,2.99,0.61c0.82,0.27,1.49,0.61,2.01,1.02
		c0.52,0.41,0.89,0.91,1.13,1.48c0.23,0.57,0.35,1.24,0.35,2.01c0,0.86-0.2,1.63-0.6,2.31c-0.4,0.68-0.95,1.26-1.64,1.74
		c-0.7,0.48-1.52,0.85-2.46,1.1c-0.95,0.26-1.98,0.39-3.09,0.39c-1.3,0-2.43-0.14-3.39-0.41c-0.96-0.27-1.76-0.64-2.39-1.1
		c-0.63-0.46-1.11-0.99-1.43-1.6c-0.32-0.6-0.49-1.23-0.5-1.89l0.15-0.36l0.36-0.15h4.46c0.25,0,0.44,0.04,0.57,0.1
		c0.12,0.07,0.27,0.17,0.44,0.29c0.22,0.17,0.47,0.3,0.74,0.4c0.27,0.09,0.6,0.14,1,0.14c0.53,0,0.95-0.05,1.28-0.16
		c0.32-0.11,0.48-0.28,0.48-0.49c0-0.28-0.21-0.5-0.64-0.65c-0.43-0.15-1.23-0.3-2.38-0.46c-0.92-0.12-1.76-0.32-2.51-0.58
		c-0.75-0.26-1.39-0.6-1.91-1.02c-0.53-0.42-0.93-0.93-1.21-1.51c-0.28-0.59-0.42-1.27-0.42-2.05c0-0.8,0.17-1.53,0.52-2.2
		c0.34-0.66,0.83-1.23,1.45-1.7c0.62-0.47,1.38-0.84,2.26-1.1C567.1,456.47,568.07,456.34,569.13,456.34"/>
	<path class="st0" d="M588.4,456.57c0.31,0,0.55,0.09,0.73,0.26c0.17,0.17,0.28,0.34,0.33,0.52l5.23,14.98l0.02,0.16l-0.15,0.37
		L594.2,473h-4.34c-0.31,0-0.53-0.07-0.66-0.2l-0.26-0.39l-0.57-1.55h-5.04l-0.57,1.55l-0.26,0.39c-0.13,0.13-0.34,0.2-0.66,0.2
		h-4.34l-0.36-0.15l-0.15-0.37l0.02-0.16l5.23-14.98c0.05-0.17,0.16-0.34,0.33-0.52c0.17-0.17,0.42-0.26,0.73-0.26H588.4z
		 M587.18,466.29l-1.34-4.37l-1.32,4.37H587.18z"/>
	<path class="st0" d="M604.53,462.84l3.4-5.63c0.05-0.08,0.15-0.2,0.31-0.38c0.16-0.17,0.39-0.26,0.7-0.26h3.71
		c0.17,0,0.32,0.06,0.45,0.19c0.13,0.13,0.19,0.28,0.19,0.45v15.16c0,0.17-0.06,0.32-0.19,0.45c-0.13,0.12-0.27,0.19-0.45,0.19
		h-4.25c-0.17,0-0.32-0.06-0.44-0.19c-0.13-0.13-0.19-0.28-0.19-0.45v-6.43l-1.55,2.53l-0.32,0.39c-0.13,0.13-0.32,0.2-0.55,0.2
		h-1.64c-0.24,0-0.42-0.07-0.55-0.2l-0.32-0.39l-1.55-2.53v6.43c0,0.17-0.06,0.32-0.19,0.45c-0.13,0.12-0.27,0.19-0.45,0.19h-4.25
		c-0.17,0-0.32-0.06-0.45-0.19c-0.13-0.13-0.19-0.28-0.19-0.45v-15.16c0-0.17,0.06-0.32,0.19-0.45c0.13-0.12,0.27-0.19,0.45-0.19
		h3.71c0.31,0,0.55,0.09,0.7,0.26c0.16,0.17,0.26,0.3,0.31,0.38L604.53,462.84z"/>
	<path class="st0" d="M628.49,468.42c0.17,0,0.32,0.06,0.45,0.19c0.12,0.12,0.19,0.27,0.19,0.45v3.31c0,0.17-0.06,0.32-0.19,0.45
		c-0.13,0.13-0.27,0.19-0.45,0.19h-12.23c-0.17,0-0.32-0.06-0.45-0.19c-0.13-0.12-0.19-0.27-0.19-0.45v-15.16
		c0-0.17,0.06-0.32,0.19-0.45c0.13-0.13,0.28-0.19,0.45-0.19h12.04c0.17,0,0.32,0.06,0.45,0.19c0.12,0.12,0.19,0.27,0.19,0.45v3.31
		c0,0.17-0.07,0.32-0.19,0.45c-0.12,0.13-0.27,0.19-0.45,0.19h-7.04v1.48h6.52c0.17,0,0.32,0.06,0.45,0.19
		c0.13,0.12,0.19,0.27,0.19,0.45v3.05c0,0.17-0.06,0.32-0.19,0.45c-0.12,0.13-0.27,0.19-0.45,0.19h-6.52v1.48H628.49z"/>
	<path class="st0" d="M645.2,456.57c0.17,0,0.32,0.06,0.45,0.19c0.12,0.12,0.19,0.27,0.19,0.44v15.16c0,0.17-0.06,0.32-0.19,0.45
		c-0.12,0.13-0.27,0.19-0.45,0.19h-3.71c-0.31,0-0.54-0.07-0.68-0.21l-0.28-0.33l-3.97-5.99v5.89c0,0.17-0.06,0.32-0.19,0.45
		c-0.13,0.13-0.27,0.19-0.44,0.19h-4.25c-0.17,0-0.32-0.06-0.45-0.19c-0.13-0.12-0.19-0.27-0.19-0.45v-15.16
		c0-0.17,0.06-0.32,0.19-0.44c0.12-0.13,0.27-0.19,0.45-0.19h3.71c0.31,0,0.54,0.07,0.68,0.21l0.28,0.33l3.97,6.5v-6.41
		c0-0.17,0.06-0.32,0.19-0.44c0.12-0.13,0.27-0.19,0.45-0.19H645.2z"/>
	<path class="st0" d="M664.78,468.19c0.17,0,0.32,0.06,0.45,0.19c0.12,0.13,0.19,0.28,0.19,0.45v3.54c0,0.17-0.06,0.32-0.19,0.45
		c-0.13,0.13-0.27,0.19-0.45,0.19h-11.83c-0.17,0-0.32-0.06-0.45-0.19c-0.13-0.12-0.19-0.27-0.19-0.45v-15.16
		c0-0.17,0.06-0.32,0.19-0.45c0.12-0.13,0.27-0.19,0.45-0.19h4.7c0.17,0,0.32,0.06,0.45,0.19c0.12,0.12,0.19,0.27,0.19,0.45v10.98
		H664.78z"/>
	<path class="st0" d="M679.64,468.42c0.17,0,0.32,0.06,0.45,0.19c0.12,0.12,0.19,0.27,0.19,0.45v3.31c0,0.17-0.06,0.32-0.19,0.45
		c-0.12,0.13-0.27,0.19-0.45,0.19h-12.23c-0.17,0-0.32-0.06-0.44-0.19c-0.13-0.12-0.19-0.27-0.19-0.45v-15.16
		c0-0.17,0.06-0.32,0.19-0.45c0.12-0.13,0.27-0.19,0.44-0.19h12.04c0.17,0,0.32,0.06,0.45,0.19c0.12,0.12,0.19,0.27,0.19,0.45v3.31
		c0,0.17-0.06,0.32-0.19,0.45c-0.12,0.13-0.27,0.19-0.45,0.19h-7.04v1.48h6.52c0.17,0,0.32,0.06,0.45,0.19
		c0.13,0.12,0.19,0.27,0.19,0.45v3.05c0,0.17-0.06,0.32-0.19,0.45c-0.12,0.13-0.27,0.19-0.45,0.19h-6.52v1.48H679.64z"/>
	<path class="st0" d="M697.31,472.23l0.07,0.26l-0.15,0.36l-0.36,0.15h-4.81c-0.31,0-0.55-0.08-0.7-0.23
		c-0.16-0.16-0.26-0.29-0.31-0.4l-2.02-4.48h-0.96v4.48c0,0.17-0.06,0.32-0.19,0.45c-0.13,0.13-0.27,0.19-0.45,0.19h-4.6
		c-0.17,0-0.32-0.06-0.45-0.19c-0.13-0.12-0.19-0.27-0.19-0.45v-15.16c0-0.17,0.06-0.32,0.19-0.45c0.12-0.12,0.27-0.19,0.45-0.19
		h6.95c1.13,0,2.14,0.13,3.03,0.39c0.89,0.26,1.64,0.63,2.25,1.13c0.61,0.49,1.08,1.09,1.41,1.79c0.33,0.71,0.49,1.5,0.49,2.4
		c0,1.06-0.23,1.98-0.7,2.75c-0.47,0.77-1.08,1.39-1.83,1.85L697.31,472.23z M688.06,463.43h1.71c0.36,0,0.63-0.12,0.81-0.36
		c0.18-0.24,0.27-0.52,0.27-0.83c0-0.31-0.08-0.61-0.25-0.88c-0.16-0.27-0.44-0.41-0.83-0.41h-1.71V463.43z"/>
	<path class="st0" d="M711.77,468.42c0.17,0,0.32,0.06,0.45,0.19c0.12,0.12,0.19,0.27,0.19,0.45v3.31c0,0.17-0.06,0.32-0.19,0.45
		c-0.12,0.13-0.27,0.19-0.45,0.19h-12.23c-0.17,0-0.32-0.06-0.44-0.19c-0.13-0.12-0.19-0.27-0.19-0.45v-15.16
		c0-0.17,0.06-0.32,0.19-0.45c0.12-0.13,0.27-0.19,0.44-0.19h12.04c0.17,0,0.32,0.06,0.45,0.19c0.12,0.12,0.19,0.27,0.19,0.45v3.31
		c0,0.17-0.06,0.32-0.19,0.45c-0.12,0.13-0.27,0.19-0.45,0.19h-7.04v1.48h6.52c0.17,0,0.32,0.06,0.45,0.19
		c0.13,0.12,0.19,0.27,0.19,0.45v3.05c0,0.17-0.06,0.32-0.19,0.45c-0.12,0.13-0.27,0.19-0.45,0.19h-6.52v1.48H711.77z"/>
	<path class="st0" d="M728.48,456.57c0.17,0,0.32,0.06,0.45,0.19c0.12,0.12,0.19,0.27,0.19,0.44v15.16c0,0.17-0.06,0.32-0.19,0.45
		c-0.12,0.13-0.27,0.19-0.45,0.19h-3.71c-0.31,0-0.54-0.07-0.68-0.21l-0.28-0.33l-3.97-5.99v5.89c0,0.17-0.06,0.32-0.19,0.45
		c-0.13,0.13-0.27,0.19-0.44,0.19h-4.25c-0.17,0-0.32-0.06-0.45-0.19c-0.13-0.12-0.19-0.27-0.19-0.45v-15.16
		c0-0.17,0.06-0.32,0.19-0.44c0.12-0.13,0.27-0.19,0.45-0.19h3.71c0.31,0,0.54,0.07,0.68,0.21l0.28,0.33l3.97,6.5v-6.41
		c0-0.17,0.06-0.32,0.19-0.44c0.12-0.13,0.27-0.19,0.45-0.19H728.48z"/>
	<path class="st0" d="M575.31,489.81c0.17,0,0.32,0.06,0.45,0.19c0.12,0.12,0.19,0.27,0.19,0.45v3.31c0,0.17-0.06,0.32-0.19,0.45
		c-0.12,0.13-0.27,0.19-0.45,0.19h-12.23c-0.17,0-0.32-0.06-0.45-0.19c-0.12-0.12-0.19-0.27-0.19-0.45v-15.16
		c0-0.17,0.06-0.32,0.19-0.45c0.13-0.13,0.28-0.19,0.45-0.19h12.04c0.17,0,0.32,0.06,0.45,0.19c0.12,0.12,0.19,0.27,0.19,0.45v3.31
		c0,0.17-0.07,0.32-0.19,0.45c-0.12,0.13-0.27,0.19-0.45,0.19h-7.04v1.48h6.52c0.17,0,0.32,0.06,0.45,0.19
		c0.13,0.12,0.19,0.27,0.19,0.45v3.05c0,0.17-0.06,0.32-0.19,0.45c-0.12,0.13-0.27,0.19-0.45,0.19h-6.52v1.48H575.31z"/>
	<path class="st0" d="M592.02,477.96c0.17,0,0.32,0.06,0.45,0.19c0.12,0.12,0.19,0.27,0.19,0.44v15.16c0,0.17-0.06,0.32-0.19,0.45
		c-0.13,0.13-0.27,0.19-0.45,0.19h-3.71c-0.31,0-0.54-0.07-0.68-0.21l-0.28-0.33l-3.97-5.99v5.89c0,0.17-0.06,0.32-0.19,0.45
		c-0.13,0.13-0.27,0.19-0.44,0.19h-4.25c-0.17,0-0.32-0.06-0.44-0.19c-0.13-0.12-0.19-0.27-0.19-0.45v-15.16
		c0-0.17,0.06-0.32,0.19-0.44c0.12-0.13,0.27-0.19,0.44-0.19h3.71c0.31,0,0.54,0.07,0.68,0.21l0.28,0.33l3.97,6.5v-6.41
		c0-0.17,0.06-0.32,0.19-0.44c0.12-0.13,0.27-0.19,0.45-0.19H592.02z"/>
	<path class="st0" d="M606.62,482.3c-1.16,0-1.76,0.59-1.81,1.76c-0.04,1.3-0.04,2.63,0,3.99c0.03,0.7,0.21,1.21,0.54,1.53
		c0.33,0.31,0.78,0.47,1.36,0.47c0.6,0,1.08-0.13,1.44-0.39c0.37-0.26,0.55-0.69,0.55-1.3h-1.1c-0.17,0-0.32-0.06-0.45-0.19
		c-0.12-0.13-0.19-0.27-0.19-0.45v-2.6c0-0.17,0.07-0.32,0.19-0.45c0.12-0.13,0.27-0.19,0.45-0.19h6.45c0.17,0,0.32,0.06,0.45,0.19
		c0.12,0.12,0.19,0.27,0.19,0.45v3.05c0,1.06-0.2,2-0.6,2.79c-0.4,0.8-0.96,1.47-1.67,2.02c-0.71,0.55-1.56,0.96-2.55,1.23
		c-0.99,0.27-2.08,0.41-3.26,0.41s-2.26-0.13-3.22-0.4c-0.95-0.27-1.77-0.67-2.45-1.2c-0.68-0.53-1.21-1.2-1.59-2.01
		c-0.38-0.81-0.6-1.76-0.65-2.85c-0.03-0.64-0.05-1.34-0.05-2.09c0-0.75,0.02-1.46,0.05-2.14c0.05-1.03,0.26-1.94,0.66-2.72
		c0.39-0.78,0.93-1.43,1.62-1.95c0.69-0.52,1.51-0.9,2.46-1.16c0.95-0.26,2.01-0.39,3.17-0.39c1.24,0,2.35,0.14,3.35,0.42
		c0.99,0.28,1.83,0.66,2.52,1.14c0.69,0.48,1.22,1.03,1.61,1.67c0.38,0.63,0.58,1.3,0.6,2.01l-0.15,0.37l-0.36,0.15h-5.19
		c-0.31,0-0.54-0.09-0.68-0.26l-0.18-0.25l-0.3-0.3c-0.13-0.1-0.3-0.19-0.49-0.26C607.14,482.34,606.9,482.3,606.62,482.3"/>
	<path class="st0" d="M631.68,493.61l0.07,0.26l-0.15,0.37l-0.36,0.15h-4.81c-0.31,0-0.55-0.08-0.7-0.23
		c-0.16-0.16-0.26-0.29-0.31-0.4l-2.02-4.48h-0.96v4.48c0,0.17-0.06,0.32-0.19,0.45c-0.13,0.13-0.27,0.19-0.45,0.19h-4.6
		c-0.17,0-0.32-0.06-0.45-0.19c-0.13-0.12-0.19-0.27-0.19-0.45v-15.16c0-0.17,0.06-0.32,0.19-0.45c0.12-0.12,0.27-0.19,0.45-0.19
		h6.95c1.13,0,2.14,0.13,3.03,0.39c0.89,0.26,1.64,0.64,2.25,1.13c0.61,0.49,1.08,1.09,1.41,1.79c0.33,0.71,0.49,1.5,0.49,2.4
		c0,1.06-0.23,1.98-0.7,2.75c-0.47,0.77-1.08,1.39-1.83,1.85L631.68,493.61z M622.44,484.81h1.71c0.36,0,0.63-0.12,0.81-0.36
		c0.18-0.24,0.27-0.52,0.27-0.83c0-0.31-0.08-0.61-0.25-0.88c-0.16-0.27-0.44-0.41-0.83-0.41h-1.71V484.81z"/>
	<path class="st0" d="M648.42,484.15c0.03,0.67,0.05,1.37,0.05,2.09c0,0.72-0.02,1.4-0.05,2.04c-0.05,1.05-0.27,1.97-0.66,2.76
		c-0.39,0.79-0.93,1.45-1.61,1.98c-0.68,0.53-1.49,0.93-2.44,1.2c-0.95,0.26-1.99,0.4-3.14,0.4c-1.16,0-2.21-0.13-3.14-0.4
		c-0.94-0.27-1.75-0.67-2.43-1.2c-0.68-0.53-1.21-1.2-1.61-1.98c-0.39-0.79-0.61-1.71-0.66-2.76c-0.03-0.64-0.05-1.32-0.05-2.04
		c0-0.72,0.02-1.42,0.05-2.09c0.05-1.03,0.26-1.95,0.66-2.75c0.39-0.8,0.93-1.47,1.61-2.02c0.68-0.55,1.49-0.96,2.43-1.24
		c0.94-0.28,1.98-0.42,3.14-0.42c1.14,0,2.19,0.14,3.14,0.42c0.95,0.28,1.76,0.7,2.44,1.24c0.68,0.55,1.22,1.22,1.61,2.02
		C648.15,482.21,648.37,483.12,648.42,484.15 M638.84,488.14c0.03,0.66,0.2,1.14,0.51,1.44c0.3,0.31,0.72,0.46,1.23,0.46
		c0.52,0,0.93-0.15,1.23-0.46c0.3-0.3,0.47-0.79,0.5-1.44c0.05-1.33,0.05-2.65,0-3.94c-0.03-0.66-0.2-1.14-0.51-1.44
		c-0.31-0.3-0.72-0.46-1.22-0.46s-0.91,0.15-1.22,0.46c-0.31,0.31-0.49,0.79-0.52,1.44C638.8,485.5,638.8,486.81,638.84,488.14"/>
	<path class="st0" d="M663.21,489.81c0.17,0,0.32,0.06,0.45,0.19c0.12,0.12,0.19,0.27,0.19,0.45v3.31c0,0.17-0.06,0.32-0.19,0.45
		c-0.12,0.13-0.27,0.19-0.45,0.19h-12.23c-0.17,0-0.32-0.06-0.45-0.19c-0.12-0.12-0.19-0.27-0.19-0.45v-15.16
		c0-0.17,0.06-0.32,0.19-0.45c0.13-0.13,0.28-0.19,0.45-0.19h12.04c0.17,0,0.32,0.06,0.45,0.19c0.12,0.12,0.19,0.27,0.19,0.45v3.31
		c0,0.17-0.07,0.32-0.19,0.45c-0.12,0.13-0.27,0.19-0.45,0.19h-7.04v1.48h6.52c0.17,0,0.32,0.06,0.45,0.19
		c0.13,0.12,0.19,0.27,0.19,0.45v3.05c0,0.17-0.06,0.32-0.19,0.45c-0.12,0.13-0.27,0.19-0.45,0.19h-6.52v1.48H663.21z"/>
	<path class="st0" d="M666.4,494.39c-0.17,0-0.32-0.06-0.45-0.19c-0.13-0.12-0.19-0.27-0.19-0.45v-15.16c0-0.17,0.06-0.32,0.19-0.45
		c0.13-0.12,0.27-0.19,0.45-0.19h4.79c0.17,0,0.32,0.07,0.45,0.19c0.12,0.13,0.19,0.27,0.19,0.45v15.16c0,0.17-0.06,0.32-0.19,0.45
		c-0.12,0.13-0.27,0.19-0.45,0.19H666.4z"/>
	<path class="st0" d="M687.03,489.81c0.17,0,0.32,0.06,0.45,0.19c0.12,0.12,0.19,0.27,0.19,0.45v3.31c0,0.17-0.06,0.32-0.19,0.45
		c-0.12,0.13-0.27,0.19-0.45,0.19H674.8c-0.17,0-0.32-0.06-0.45-0.19c-0.12-0.12-0.19-0.27-0.19-0.45v-15.16
		c0-0.17,0.06-0.32,0.19-0.45c0.13-0.13,0.28-0.19,0.45-0.19h12.04c0.17,0,0.32,0.06,0.45,0.19c0.12,0.12,0.19,0.27,0.19,0.45v3.31
		c0,0.17-0.07,0.32-0.19,0.45c-0.12,0.13-0.27,0.19-0.45,0.19h-7.04v1.48h6.52c0.17,0,0.32,0.06,0.45,0.19
		c0.13,0.12,0.19,0.27,0.19,0.45v3.05c0,0.17-0.06,0.32-0.19,0.45c-0.12,0.13-0.27,0.19-0.45,0.19h-6.52v1.48H687.03z"/>
	<path class="st0" d="M703.74,477.96c0.17,0,0.32,0.06,0.45,0.19c0.12,0.12,0.19,0.27,0.19,0.44v15.16c0,0.17-0.06,0.32-0.19,0.45
		c-0.12,0.13-0.27,0.19-0.45,0.19h-3.71c-0.31,0-0.54-0.07-0.68-0.21l-0.28-0.33l-3.97-5.99v5.89c0,0.17-0.06,0.32-0.19,0.45
		c-0.13,0.13-0.28,0.19-0.45,0.19h-4.25c-0.17,0-0.32-0.06-0.45-0.19c-0.13-0.12-0.19-0.27-0.19-0.45v-15.16
		c0-0.17,0.06-0.32,0.19-0.44c0.12-0.13,0.27-0.19,0.45-0.19h3.71c0.31,0,0.54,0.07,0.68,0.21l0.28,0.33l3.97,6.5v-6.41
		c0-0.17,0.06-0.32,0.19-0.44c0.12-0.13,0.27-0.19,0.45-0.19H703.74z"/>
	<path class="st1" d="M567.47,503.12c-0.31,0-0.56,0.09-0.73,0.26c-0.17,0.17-0.28,0.34-0.33,0.51l-5.23,14.97l-0.02,0.17l0.15,0.36
		l0.37,0.15h4.34c0.31,0,0.53-0.07,0.66-0.2l0.26-0.39l0.56-1.55h5.04l0.57,1.55l0.26,0.39c0.12,0.13,0.35,0.2,0.66,0.2h4.34
		l0.36-0.15l0.15-0.36l-0.02-0.17l-5.23-14.97c-0.05-0.17-0.16-0.35-0.33-0.51c-0.17-0.17-0.41-0.26-0.73-0.26H567.47z M570,508.47
		l1.34,4.37h-2.65L570,508.47z"/>
	<path class="st1" d="M585.92,510.09v-2.61h1.64c0.42,0,0.71,0.15,0.86,0.45c0.15,0.3,0.22,0.6,0.22,0.89
		c0,0.46-0.11,0.78-0.35,0.98c-0.24,0.19-0.48,0.29-0.73,0.29H585.92z M587.68,503.12h-7.11c-0.17,0-0.32,0.06-0.45,0.19
		c-0.13,0.13-0.19,0.27-0.19,0.45v15.16c0,0.17,0.06,0.32,0.19,0.45c0.13,0.13,0.27,0.19,0.45,0.19h4.84c0.17,0,0.32-0.06,0.45-0.19
		c0.13-0.12,0.19-0.27,0.19-0.45v-4.48h1.64c1.06,0,2.03-0.11,2.9-0.32c0.87-0.21,1.61-0.54,2.23-0.99
		c0.62-0.46,1.09-1.03,1.43-1.74c0.34-0.71,0.5-1.54,0.5-2.51c0-0.97-0.17-1.82-0.5-2.54c-0.34-0.72-0.81-1.32-1.43-1.79
		c-0.62-0.48-1.36-0.83-2.23-1.07C589.71,503.23,588.74,503.12,587.68,503.12"/>
	<path class="st1" d="M602.23,510.09v-2.61h1.64c0.42,0,0.71,0.15,0.86,0.45c0.15,0.3,0.22,0.6,0.22,0.89
		c0,0.46-0.12,0.78-0.35,0.98c-0.23,0.19-0.48,0.29-0.73,0.29H602.23z M603.99,503.12h-7.11c-0.17,0-0.32,0.06-0.45,0.19
		c-0.13,0.13-0.19,0.27-0.19,0.45v15.16c0,0.17,0.06,0.32,0.19,0.45c0.13,0.13,0.27,0.19,0.45,0.19h4.84c0.17,0,0.32-0.06,0.44-0.19
		c0.13-0.12,0.19-0.27,0.19-0.45v-4.48h1.64c1.06,0,2.03-0.11,2.9-0.32c0.87-0.21,1.61-0.54,2.23-0.99
		c0.62-0.46,1.09-1.03,1.43-1.74c0.34-0.71,0.5-1.54,0.5-2.51c0-0.97-0.17-1.82-0.5-2.54c-0.34-0.72-0.81-1.32-1.43-1.79
		c-0.62-0.48-1.36-0.83-2.23-1.07C606.02,503.23,605.05,503.12,603.99,503.12"/>
	<path class="st1" d="M618.42,509.97v-2.49h1.71c0.39,0,0.67,0.14,0.83,0.41c0.17,0.28,0.25,0.57,0.25,0.88
		c0,0.32-0.09,0.59-0.27,0.83c-0.18,0.24-0.45,0.36-0.81,0.36H618.42z M620.14,503.12h-6.95c-0.17,0-0.32,0.06-0.45,0.19
		c-0.12,0.13-0.19,0.27-0.19,0.45v15.16c0,0.17,0.06,0.32,0.19,0.44c0.13,0.12,0.27,0.19,0.45,0.19h4.6c0.17,0,0.32-0.07,0.45-0.19
		c0.12-0.13,0.19-0.27,0.19-0.44v-4.48h0.96l2.02,4.48c0.05,0.11,0.15,0.24,0.31,0.4s0.39,0.24,0.7,0.24h4.81l0.36-0.15l0.15-0.36
		l-0.07-0.26l-2.89-5.35c0.75-0.47,1.36-1.09,1.83-1.85c0.47-0.77,0.7-1.68,0.7-2.75c0-0.89-0.16-1.69-0.49-2.4
		c-0.33-0.7-0.8-1.3-1.41-1.79c-0.61-0.49-1.36-0.87-2.26-1.13C622.27,503.25,621.26,503.12,620.14,503.12"/>
	<path class="st1" d="M641.94,503.12H629.9c-0.17,0-0.32,0.06-0.45,0.19c-0.13,0.13-0.19,0.28-0.19,0.45v15.16
		c0,0.17,0.06,0.32,0.19,0.44c0.13,0.12,0.27,0.19,0.45,0.19h12.23c0.17,0,0.32-0.06,0.45-0.19c0.12-0.13,0.19-0.27,0.19-0.44v-3.31
		c0-0.17-0.07-0.32-0.19-0.44c-0.13-0.13-0.27-0.19-0.45-0.19h-7.23v-1.48h6.52c0.17,0,0.32-0.07,0.45-0.19
		c0.13-0.13,0.19-0.27,0.19-0.45v-3.05c0-0.17-0.06-0.32-0.19-0.45c-0.12-0.13-0.27-0.19-0.45-0.19h-6.52v-1.48h7.04
		c0.17,0,0.32-0.06,0.45-0.19c0.12-0.12,0.19-0.27,0.19-0.45v-3.31c0-0.17-0.06-0.32-0.19-0.45
		C642.26,503.18,642.11,503.12,641.94,503.12"/>
	<path class="st1" d="M658.84,503.12h-4.25c-0.17,0-0.32,0.06-0.45,0.19c-0.12,0.13-0.19,0.28-0.19,0.45v6.41l-3.97-6.5l-0.28-0.33
		c-0.14-0.14-0.37-0.21-0.68-0.21h-3.71c-0.17,0-0.32,0.06-0.45,0.19c-0.13,0.13-0.19,0.28-0.19,0.45v15.16
		c0,0.17,0.06,0.32,0.19,0.44c0.12,0.12,0.27,0.19,0.45,0.19h4.25c0.17,0,0.32-0.06,0.45-0.19c0.12-0.13,0.19-0.27,0.19-0.44v-5.89
		l3.96,5.99l0.28,0.33c0.14,0.14,0.37,0.21,0.68,0.21h3.71c0.17,0,0.32-0.06,0.45-0.19c0.12-0.13,0.19-0.27,0.19-0.44v-15.16
		c0-0.17-0.06-0.32-0.19-0.45C659.16,503.18,659.01,503.12,658.84,503.12"/>
	<path class="st1" d="M667.69,514.97v-7.27h1.41c0.53,0,0.99,0.15,1.37,0.45c0.39,0.3,0.59,0.77,0.62,1.43
		c0.02,0.33,0.03,0.63,0.04,0.9c0.01,0.27,0.01,0.55,0.01,0.82c0,0.27-0.01,0.56-0.01,0.85c-0.01,0.29-0.02,0.6-0.04,0.93
		c-0.03,0.66-0.22,1.14-0.58,1.44c-0.35,0.31-0.79,0.46-1.3,0.46H667.69z M669.21,503.12h-6.76c-0.17,0-0.32,0.06-0.44,0.19
		c-0.13,0.13-0.19,0.27-0.19,0.45v15.16c0,0.17,0.06,0.32,0.19,0.45c0.12,0.13,0.27,0.19,0.44,0.19h6.88c1.13,0,2.15-0.13,3.08-0.39
		c0.92-0.26,1.72-0.65,2.39-1.18c0.67-0.53,1.21-1.21,1.6-2.02c0.39-0.81,0.61-1.78,0.65-2.89c0.02-0.31,0.03-0.61,0.03-0.89v-0.83
		v-0.85c0-0.29-0.01-0.6-0.03-0.93c-0.05-1.05-0.27-1.97-0.68-2.78c-0.4-0.8-0.96-1.48-1.65-2.02c-0.7-0.54-1.51-0.95-2.46-1.23
		C671.33,503.26,670.31,503.12,669.21,503.12"/>
	<path class="st1" d="M684.82,509.97v-2.49h1.71c0.39,0,0.67,0.14,0.83,0.41c0.17,0.28,0.25,0.57,0.25,0.88
		c0,0.32-0.09,0.59-0.27,0.83c-0.18,0.24-0.45,0.36-0.81,0.36H684.82z M686.54,503.12h-6.95c-0.17,0-0.32,0.06-0.45,0.19
		c-0.12,0.13-0.19,0.27-0.19,0.45v15.16c0,0.17,0.06,0.32,0.19,0.44c0.13,0.12,0.27,0.19,0.45,0.19h4.6c0.17,0,0.32-0.07,0.45-0.19
		c0.13-0.13,0.19-0.27,0.19-0.44v-4.48h0.96l2.02,4.48c0.05,0.11,0.15,0.24,0.31,0.4s0.39,0.24,0.7,0.24h4.81l0.36-0.15l0.15-0.36
		l-0.07-0.26l-2.89-5.35c0.75-0.47,1.36-1.09,1.83-1.85c0.47-0.77,0.7-1.68,0.7-2.75c0-0.89-0.17-1.69-0.49-2.4
		c-0.33-0.7-0.8-1.3-1.41-1.79c-0.61-0.49-1.36-0.87-2.25-1.13C688.67,503.25,687.66,503.12,686.54,503.12"/>
	<path class="st1" d="M708.34,503.12H696.3c-0.17,0-0.32,0.06-0.44,0.19c-0.13,0.13-0.19,0.28-0.19,0.45v15.16
		c0,0.17,0.06,0.32,0.19,0.44c0.12,0.12,0.27,0.19,0.44,0.19h12.23c0.17,0,0.32-0.06,0.45-0.19c0.12-0.13,0.19-0.27,0.19-0.44v-3.31
		c0-0.17-0.06-0.32-0.19-0.44c-0.13-0.13-0.27-0.19-0.45-0.19h-7.23v-1.48h6.52c0.17,0,0.32-0.07,0.45-0.19
		c0.13-0.13,0.19-0.27,0.19-0.45v-3.05c0-0.17-0.06-0.32-0.19-0.45c-0.12-0.13-0.27-0.19-0.45-0.19h-6.52v-1.48h7.04
		c0.17,0,0.32-0.06,0.45-0.19c0.12-0.12,0.19-0.27,0.19-0.45v-3.31c0-0.17-0.06-0.32-0.19-0.45
		C708.66,503.18,708.51,503.12,708.34,503.12"/>
	<path class="st1" d="M727.89,503.12h-12.04c-0.17,0-0.32,0.06-0.44,0.19c-0.13,0.13-0.19,0.28-0.19,0.45v15.16
		c0,0.17,0.06,0.32,0.19,0.44c0.12,0.12,0.27,0.19,0.44,0.19h12.23c0.17,0,0.32-0.06,0.44-0.19c0.12-0.13,0.19-0.27,0.19-0.44v-3.31
		c0-0.17-0.06-0.32-0.19-0.44c-0.13-0.13-0.27-0.19-0.44-0.19h-7.23v-1.48h6.52c0.17,0,0.32-0.07,0.45-0.19
		c0.13-0.13,0.19-0.27,0.19-0.45v-3.05c0-0.17-0.06-0.32-0.19-0.45c-0.12-0.13-0.27-0.19-0.45-0.19h-6.52v-1.48h7.04
		c0.17,0,0.32-0.06,0.45-0.19c0.12-0.12,0.19-0.27,0.19-0.45v-3.31c0-0.17-0.06-0.32-0.19-0.45
		C728.21,503.18,728.06,503.12,727.89,503.12"/>
	<path class="st1" d="M744.13,503.12h-13.75c-0.17,0-0.32,0.06-0.45,0.19c-0.12,0.13-0.19,0.28-0.19,0.45v3.78
		c0,0.17,0.06,0.32,0.19,0.45c0.13,0.13,0.27,0.19,0.45,0.19h3.9v10.75c0,0.17,0.06,0.32,0.19,0.44c0.12,0.12,0.27,0.19,0.45,0.19
		h4.7c0.17,0,0.32-0.06,0.45-0.19c0.12-0.13,0.19-0.27,0.19-0.44v-10.75h3.9c0.17,0,0.32-0.06,0.45-0.19
		c0.13-0.12,0.19-0.27,0.19-0.45v-3.78c0-0.17-0.06-0.32-0.19-0.45C744.45,503.18,744.3,503.12,744.13,503.12"/>
	<path class="st1" d="M569.93,524.27c-1.16,0-2.22,0.13-3.17,0.39c-0.95,0.26-1.78,0.65-2.46,1.16c-0.69,0.52-1.23,1.17-1.62,1.95
		c-0.39,0.78-0.61,1.69-0.66,2.72c-0.03,0.67-0.05,1.39-0.05,2.14c0,0.75,0.01,1.45,0.05,2.09c0.05,1.09,0.26,2.05,0.65,2.85
		c0.38,0.8,0.92,1.48,1.6,2.01c0.68,0.53,1.5,0.93,2.45,1.2c0.95,0.26,2.03,0.4,3.22,0.4c1.19,0,2.28-0.14,3.26-0.41
		c0.98-0.27,1.83-0.68,2.55-1.23c0.71-0.55,1.27-1.22,1.67-2.02c0.4-0.8,0.6-1.73,0.6-2.79v-3.05c0-0.17-0.06-0.32-0.19-0.45
		c-0.13-0.12-0.28-0.19-0.45-0.19h-6.46c-0.17,0-0.32,0.06-0.44,0.19c-0.13,0.13-0.19,0.27-0.19,0.45v2.61
		c0,0.17,0.06,0.32,0.19,0.45c0.12,0.13,0.27,0.19,0.44,0.19h1.1c0,0.61-0.18,1.04-0.55,1.3c-0.37,0.26-0.85,0.39-1.44,0.39
		c-0.58,0-1.03-0.16-1.36-0.47c-0.33-0.32-0.51-0.82-0.54-1.53c-0.05-1.36-0.05-2.69,0-3.99c0.05-1.17,0.65-1.76,1.81-1.76
		c0.28,0,0.52,0.04,0.72,0.11c0.19,0.07,0.36,0.16,0.49,0.26l0.3,0.3l0.18,0.25c0.14,0.17,0.37,0.26,0.68,0.26h5.19l0.36-0.15
		l0.15-0.36c-0.01-0.7-0.21-1.37-0.6-2.01c-0.38-0.63-0.92-1.19-1.61-1.67c-0.69-0.48-1.53-0.86-2.52-1.14
		C572.28,524.41,571.17,524.27,569.93,524.27"/>
	<path class="st1" d="M585.75,531.35v-2.49h1.71c0.39,0,0.67,0.14,0.83,0.41c0.17,0.27,0.25,0.57,0.25,0.88
		c0,0.31-0.09,0.59-0.27,0.83c-0.18,0.24-0.45,0.36-0.81,0.36H585.75z M587.46,524.5h-6.95c-0.17,0-0.32,0.06-0.45,0.19
		c-0.13,0.13-0.19,0.27-0.19,0.45v15.16c0,0.17,0.06,0.32,0.19,0.44c0.12,0.13,0.27,0.19,0.45,0.19h4.6c0.17,0,0.32-0.06,0.44-0.19
		c0.13-0.12,0.19-0.27,0.19-0.44v-4.48h0.96l2.02,4.48c0.05,0.11,0.15,0.24,0.31,0.4c0.16,0.16,0.39,0.23,0.7,0.23h4.81l0.36-0.15
		l0.15-0.36l-0.07-0.26l-2.89-5.35c0.75-0.47,1.36-1.09,1.83-1.85c0.47-0.77,0.7-1.68,0.7-2.74c0-0.89-0.16-1.69-0.49-2.4
		c-0.33-0.7-0.8-1.3-1.41-1.79c-0.61-0.49-1.36-0.87-2.26-1.13C589.6,524.63,588.59,524.5,587.46,524.5"/>
	<path class="st1" d="M602.84,534.22l1.31-4.36l1.34,4.36H602.84z M606.71,524.5h-5.09c-0.32,0-0.55,0.08-0.73,0.26
		c-0.17,0.17-0.28,0.34-0.33,0.52l-5.24,14.97l-0.02,0.17l0.15,0.36l0.36,0.15h4.34c0.31,0,0.53-0.07,0.66-0.2l0.26-0.39l0.56-1.55
		h5.05l0.56,1.55l0.26,0.39c0.12,0.13,0.35,0.2,0.66,0.2h4.34l0.36-0.15l0.15-0.36l-0.02-0.17l-5.23-14.97
		c-0.05-0.17-0.16-0.34-0.33-0.52C607.27,524.59,607.03,524.5,606.71,524.5"/>
	<path class="st1" d="M628.23,524.5h-4.25c-0.17,0-0.32,0.06-0.45,0.19c-0.12,0.12-0.19,0.27-0.19,0.45v6.41l-3.97-6.5l-0.28-0.33
		c-0.14-0.14-0.37-0.21-0.68-0.21h-3.71c-0.17,0-0.32,0.06-0.45,0.19c-0.13,0.12-0.19,0.27-0.19,0.45v15.16
		c0,0.17,0.06,0.32,0.19,0.45c0.12,0.13,0.27,0.19,0.45,0.19h4.25c0.17,0,0.32-0.06,0.45-0.19c0.12-0.12,0.19-0.27,0.19-0.45v-5.89
		l3.97,5.99l0.28,0.33c0.14,0.14,0.37,0.21,0.68,0.21h3.71c0.17,0,0.32-0.06,0.45-0.19c0.12-0.12,0.19-0.27,0.19-0.45v-15.16
		c0-0.17-0.06-0.32-0.19-0.45C628.56,524.56,628.41,524.5,628.23,524.5"/>
	<path class="st1" d="M637.08,536.35v-7.27h1.41c0.53,0,0.99,0.15,1.37,0.44c0.38,0.3,0.59,0.78,0.62,1.43
		c0.02,0.33,0.03,0.63,0.04,0.9c0.01,0.27,0.01,0.55,0.01,0.82c0,0.27-0.01,0.55-0.01,0.84c-0.01,0.29-0.02,0.6-0.04,0.93
		c-0.03,0.66-0.22,1.14-0.58,1.44c-0.35,0.3-0.79,0.46-1.3,0.46H637.08z M638.61,524.5h-6.76c-0.17,0-0.32,0.06-0.45,0.19
		c-0.13,0.13-0.19,0.27-0.19,0.45v15.16c0,0.17,0.06,0.32,0.19,0.45c0.13,0.13,0.27,0.19,0.45,0.19h6.88c1.13,0,2.15-0.13,3.08-0.39
		c0.92-0.26,1.72-0.65,2.39-1.19c0.67-0.53,1.21-1.2,1.6-2.02c0.39-0.81,0.61-1.77,0.65-2.89c0.02-0.31,0.03-0.61,0.03-0.89v-0.83
		v-0.84c0-0.29-0.01-0.6-0.03-0.93c-0.05-1.05-0.27-1.97-0.68-2.78c-0.41-0.81-0.96-1.48-1.65-2.02c-0.69-0.54-1.51-0.95-2.45-1.23
		C640.72,524.64,639.7,524.5,638.61,524.5"/>
	<path class="st1" d="M653.77,524.5h-4.79c-0.17,0-0.32,0.06-0.45,0.19c-0.13,0.12-0.19,0.27-0.19,0.45v15.16
		c0,0.17,0.06,0.32,0.19,0.45c0.12,0.13,0.28,0.19,0.45,0.19h4.79c0.17,0,0.32-0.06,0.45-0.19c0.12-0.12,0.19-0.27,0.19-0.45v-15.16
		c0-0.17-0.06-0.32-0.19-0.45C654.09,524.56,653.94,524.5,653.77,524.5"/>
	<path class="st1" d="M662.62,531.35v-2.49h1.71c0.39,0,0.67,0.14,0.83,0.41c0.17,0.27,0.25,0.57,0.25,0.88
		c0,0.31-0.09,0.59-0.27,0.83c-0.18,0.24-0.45,0.36-0.81,0.36H662.62z M664.33,524.5h-6.95c-0.17,0-0.32,0.06-0.44,0.19
		c-0.13,0.13-0.19,0.27-0.19,0.45v15.16c0,0.17,0.06,0.32,0.19,0.44c0.12,0.13,0.27,0.19,0.44,0.19h4.6c0.17,0,0.32-0.06,0.45-0.19
		c0.12-0.12,0.19-0.27,0.19-0.44v-4.48h0.96l2.02,4.48c0.05,0.11,0.15,0.24,0.31,0.4c0.16,0.16,0.39,0.23,0.7,0.23h4.81l0.36-0.15
		l0.15-0.36l-0.07-0.26l-2.89-5.35c0.75-0.47,1.36-1.09,1.83-1.85c0.47-0.77,0.7-1.68,0.7-2.74c0-0.89-0.16-1.69-0.49-2.4
		c-0.33-0.7-0.8-1.3-1.41-1.79c-0.61-0.49-1.36-0.87-2.26-1.13C666.47,524.63,665.46,524.5,664.33,524.5"/>
	<path class="st1" d="M690.27,524.5h-12.04c-0.17,0-0.32,0.06-0.45,0.19c-0.13,0.12-0.19,0.27-0.19,0.45v15.16
		c0,0.17,0.06,0.32,0.19,0.45c0.12,0.13,0.28,0.19,0.45,0.19h12.23c0.17,0,0.32-0.06,0.45-0.19c0.12-0.12,0.19-0.27,0.19-0.45v-3.31
		c0-0.17-0.06-0.32-0.19-0.45c-0.13-0.13-0.27-0.19-0.45-0.19h-7.23v-1.48h6.52c0.17,0,0.32-0.06,0.45-0.19
		c0.13-0.13,0.19-0.27,0.19-0.45v-3.05c0-0.17-0.06-0.32-0.19-0.45c-0.12-0.12-0.27-0.19-0.45-0.19h-6.52v-1.48h7.04
		c0.17,0,0.32-0.06,0.45-0.19c0.12-0.12,0.19-0.27,0.19-0.45v-3.31c0-0.17-0.06-0.32-0.19-0.45
		C690.59,524.56,690.44,524.5,690.27,524.5"/>
	<path class="st1" d="M707.17,524.5h-4.25c-0.17,0-0.32,0.06-0.45,0.19c-0.12,0.12-0.19,0.27-0.19,0.45v6.41l-3.97-6.5l-0.28-0.33
		c-0.14-0.14-0.37-0.21-0.68-0.21h-3.71c-0.17,0-0.32,0.06-0.45,0.19c-0.13,0.12-0.19,0.27-0.19,0.45v15.16
		c0,0.17,0.06,0.32,0.19,0.45c0.12,0.13,0.27,0.19,0.45,0.19h4.25c0.17,0,0.32-0.06,0.45-0.19c0.12-0.12,0.19-0.27,0.19-0.45v-5.89
		l3.96,5.99l0.28,0.33c0.14,0.14,0.37,0.21,0.68,0.21h3.71c0.17,0,0.32-0.06,0.45-0.19c0.12-0.12,0.19-0.27,0.19-0.45v-15.16
		c0-0.17-0.06-0.32-0.19-0.45C707.49,524.56,707.34,524.5,707.17,524.5"/>
	<path class="st1" d="M716.84,524.27c-1.06,0-2.04,0.13-2.92,0.4c-0.89,0.27-1.64,0.63-2.27,1.1c-0.62,0.47-1.11,1.04-1.45,1.7
		c-0.35,0.66-0.52,1.4-0.52,2.19c0,0.78,0.14,1.47,0.42,2.05c0.28,0.59,0.68,1.09,1.21,1.52c0.52,0.42,1.16,0.76,1.91,1.02
		c0.75,0.26,1.59,0.45,2.51,0.58c1.16,0.16,1.95,0.31,2.38,0.46c0.43,0.15,0.65,0.36,0.65,0.65c0,0.22-0.16,0.38-0.48,0.49
		c-0.32,0.11-0.75,0.16-1.28,0.16c-0.39,0-0.72-0.05-1-0.14c-0.27-0.09-0.52-0.23-0.74-0.4c-0.17-0.13-0.32-0.22-0.45-0.3
		s-0.32-0.11-0.56-0.11h-4.46l-0.36,0.15l-0.15,0.36c0.01,0.66,0.18,1.29,0.5,1.89c0.32,0.6,0.8,1.14,1.43,1.6
		c0.63,0.46,1.43,0.83,2.39,1.1c0.96,0.27,2.09,0.41,3.39,0.41c1.11,0,2.14-0.13,3.09-0.39c0.95-0.26,1.77-0.62,2.46-1.1
		c0.7-0.48,1.24-1.06,1.65-1.74c0.4-0.68,0.6-1.45,0.6-2.31c0-0.77-0.12-1.44-0.35-2.01c-0.23-0.57-0.61-1.06-1.13-1.48
		c-0.52-0.42-1.18-0.76-2.01-1.02c-0.82-0.27-1.82-0.47-2.99-0.61c-0.53-0.06-0.96-0.13-1.3-0.2c-0.34-0.07-0.6-0.15-0.8-0.23
		c-0.2-0.09-0.33-0.18-0.4-0.27l-0.11-0.3c0-0.2,0.09-0.36,0.26-0.48c0.17-0.12,0.46-0.18,0.87-0.18c0.33,0,0.6,0.05,0.81,0.15
		c0.21,0.1,0.36,0.19,0.43,0.27l0.41,0.28c0.13,0.06,0.31,0.09,0.53,0.09h4.69l0.34-0.15l0.15-0.36c-0.02-0.52-0.19-1.06-0.52-1.62
		c-0.33-0.57-0.81-1.09-1.43-1.57c-0.63-0.48-1.39-0.88-2.3-1.2C719.05,524.42,718.01,524.27,716.84,524.27"/>
	<path class="st1" d="M738.95,524.5h-12.04c-0.17,0-0.32,0.06-0.45,0.19c-0.13,0.12-0.19,0.27-0.19,0.45v15.16
		c0,0.17,0.06,0.32,0.19,0.45c0.12,0.13,0.27,0.19,0.45,0.19h12.23c0.17,0,0.32-0.06,0.45-0.19c0.13-0.12,0.19-0.27,0.19-0.45v-3.31
		c0-0.17-0.06-0.32-0.19-0.45c-0.12-0.13-0.27-0.19-0.45-0.19h-7.23v-1.48h6.53c0.17,0,0.32-0.06,0.45-0.19
		c0.13-0.13,0.19-0.27,0.19-0.45v-3.05c0-0.17-0.06-0.32-0.19-0.45c-0.13-0.12-0.27-0.19-0.45-0.19h-6.53v-1.48h7.04
		c0.17,0,0.32-0.06,0.45-0.19c0.12-0.12,0.19-0.27,0.19-0.45v-3.31c0-0.17-0.06-0.32-0.19-0.45
		C739.27,524.56,739.12,524.5,738.95,524.5"/>
	<path class="st1" d="M758.57,524.5h-3.71c-0.31,0-0.55,0.09-0.71,0.26c-0.16,0.17-0.26,0.3-0.31,0.38l-3.4,5.64l-3.4-5.64
		c-0.05-0.08-0.15-0.2-0.3-0.38c-0.16-0.17-0.39-0.26-0.71-0.26h-3.71c-0.17,0-0.32,0.06-0.45,0.19c-0.13,0.12-0.19,0.27-0.19,0.45
		v15.16c0,0.17,0.06,0.32,0.19,0.45c0.13,0.13,0.27,0.19,0.45,0.19h4.25c0.17,0,0.32-0.06,0.45-0.19c0.13-0.12,0.19-0.27,0.19-0.45
		v-6.43l1.55,2.53l0.32,0.39c0.13,0.13,0.32,0.2,0.55,0.2h1.64c0.24,0,0.42-0.07,0.55-0.2l0.32-0.39l1.55-2.53v6.43
		c0,0.17,0.06,0.32,0.19,0.45c0.12,0.13,0.27,0.19,0.45,0.19h4.25c0.17,0,0.32-0.06,0.45-0.19c0.12-0.12,0.19-0.27,0.19-0.45v-15.16
		c0-0.17-0.06-0.32-0.19-0.45C758.89,524.56,758.74,524.5,758.57,524.5"/>
	<path class="st1" d="M767.42,536.89v-2.3h2.18c0.36,0,0.63,0.12,0.81,0.36c0.18,0.24,0.27,0.51,0.27,0.79
		c0,0.27-0.08,0.52-0.25,0.77c-0.16,0.25-0.44,0.38-0.83,0.38H767.42z M767.42,530.68v-2.14h1.97c0.34,0,0.59,0.12,0.74,0.35
		c0.15,0.23,0.22,0.48,0.22,0.73c0,0.25-0.07,0.49-0.22,0.71c-0.15,0.23-0.4,0.34-0.74,0.34H767.42z M769.98,524.5h-7.79
		c-0.17,0-0.32,0.06-0.45,0.19c-0.13,0.12-0.19,0.27-0.19,0.45v15.16c0,0.17,0.06,0.32,0.19,0.44c0.12,0.13,0.27,0.19,0.45,0.19
		h8.03c2.15,0,3.78-0.42,4.92-1.26c1.14-0.84,1.7-2.14,1.7-3.91c0-0.39-0.06-0.77-0.17-1.12c-0.12-0.35-0.28-0.67-0.48-0.97
		c-0.21-0.3-0.44-0.56-0.72-0.79c-0.28-0.23-0.56-0.4-0.86-0.53c0.19-0.09,0.39-0.23,0.61-0.41c0.22-0.18,0.43-0.39,0.61-0.64
		c0.19-0.24,0.35-0.52,0.47-0.85c0.13-0.32,0.19-0.67,0.19-1.04c0-1.66-0.52-2.9-1.56-3.71C773.88,524.91,772.23,524.5,769.98,524.5
		"/>
	<path class="st1" d="M783.87,524.5h-4.7c-0.17,0-0.32,0.06-0.45,0.19c-0.13,0.12-0.19,0.27-0.19,0.45v15.16
		c0,0.17,0.06,0.32,0.19,0.45c0.13,0.13,0.27,0.19,0.45,0.19h11.83c0.17,0,0.32-0.06,0.45-0.19c0.12-0.12,0.19-0.27,0.19-0.45v-3.54
		c0-0.17-0.07-0.32-0.19-0.45c-0.13-0.13-0.27-0.19-0.45-0.19h-6.5v-10.98c0-0.17-0.06-0.32-0.19-0.45
		C784.19,524.56,784.04,524.5,783.87,524.5"/>
	<path class="st1" d="M805.68,524.5h-12.04c-0.17,0-0.32,0.06-0.44,0.19c-0.13,0.12-0.19,0.27-0.19,0.45v15.16
		c0,0.17,0.06,0.32,0.19,0.45c0.12,0.13,0.27,0.19,0.44,0.19h12.23c0.17,0,0.32-0.06,0.44-0.19c0.12-0.12,0.19-0.27,0.19-0.45v-3.31
		c0-0.17-0.06-0.32-0.19-0.45c-0.13-0.13-0.27-0.19-0.44-0.19h-7.23v-1.48h6.52c0.17,0,0.32-0.06,0.45-0.19
		c0.13-0.13,0.19-0.27,0.19-0.45v-3.05c0-0.17-0.06-0.32-0.19-0.45c-0.12-0.12-0.27-0.19-0.45-0.19h-6.52v-1.48h7.04
		c0.17,0,0.32-0.06,0.45-0.19c0.12-0.12,0.19-0.27,0.19-0.45v-3.31c0-0.17-0.06-0.32-0.19-0.45
		C806,524.56,805.85,524.5,805.68,524.5"/>
	<path class="st0" d="M532.08,526.76v-54.49c0-11.34-9.47-20.54-21.16-20.54H220.17c-11.69,0-21.16,9.19-21.16,20.54v54.49
		c0,11.34,9.47,20.54,21.16,20.54h290.74C522.6,547.29,532.08,538.1,532.08,526.76"/>
	<path class="st2" d="M512.84,450.04H218.25c-11.74,0-21.25,9.51-21.25,21.25v56.39c0,11.74,9.51,21.25,21.25,21.25h294.59
		c11.74,0,21.25-9.52,21.25-21.25v-56.39C534.09,459.55,524.58,450.04,512.84,450.04 M512.84,453.06c10.05,0,18.22,8.18,18.22,18.22
		v56.39c0,10.05-8.18,18.22-18.22,18.22H218.25c-10.05,0-18.23-8.18-18.23-18.22v-56.39c0-10.05,8.18-18.22,18.23-18.22H512.84z"/>
	<path class="st2" d="M326.6,520.56c0,3.8-0.83,5.12-3.17,5.12c-2.41,0-3.16-1.32-3.16-5.12v-9.64c0-3.84,0.75-5.12,3.16-5.16
		c2.34-0.04,3.17,1.32,3.17,5.16V520.56z M330.81,520.6v-9.75c0-3.05-0.45-4.82-1.54-6.4c-1.16-1.66-3.31-2.57-5.83-2.57
		c-2.6,0-4.55,0.87-5.79,2.57c-1.09,1.47-1.55,3.35-1.55,6.4v9.75c0,3.04,0.42,4.78,1.55,6.36c1.12,1.66,3.2,2.56,5.79,2.6
		c2.52,0.04,4.52-0.86,5.83-2.6C330.36,525.49,330.81,523.64,330.81,520.6 M311.74,505.05v-1.7c0-0.45-0.3-0.79-0.3-0.79
		s-0.34-0.3-0.79-0.3h-10.13c-0.45,0.04-0.79,0.34-0.79,0.34s-0.26,0.34-0.26,0.75v24.7c-0.04,0.33,0.33,0.71,0.33,0.71
		s0.38,0.38,0.72,0.38h2c0.38,0.04,0.76-0.34,0.76-0.34s0.38-0.42,0.34-0.75v-9.98c0-0.41,0.3-0.71,0.3-0.71s0.3-0.34,0.75-0.38
		h5.12c0.37,0.04,0.75-0.34,0.75-0.34s0.37-0.38,0.33-0.71v-1.61c0-0.46-0.33-0.79-0.33-0.79s-0.38-0.38-0.75-0.38h-5.12
		c-0.38,0-0.71-0.34-0.71-0.34s-0.3-0.34-0.3-0.72v-4.85c0-0.46,0.3-0.8,0.3-0.8s0.33-0.34,0.71-0.34h5.98
		c0.42,0.04,0.79-0.3,0.79-0.3S311.77,505.39,311.74,505.05"/>
	<path class="st2" d="M326.6,488.3c0,3.8-0.83,5.12-3.16,5.12c-2.41,0-3.16-1.32-3.16-5.12v-9.63c0-3.84,0.76-5.12,3.16-5.15
		c2.34-0.04,3.16,1.32,3.16,5.15V488.3z M330.82,488.33v-9.75c0-3.04-0.46-4.81-1.55-6.4c-1.17-1.65-3.31-2.56-5.83-2.56
		c-2.6,0-4.56,0.87-5.79,2.56c-1.09,1.47-1.55,3.35-1.55,6.4v9.75c0,3.05,0.42,4.79,1.55,6.37c1.12,1.65,3.2,2.55,5.79,2.59
		c2.53,0.04,4.51-0.87,5.83-2.59C330.36,493.23,330.82,491.38,330.82,488.33 M313.24,471.1c0.08-0.49-0.11-0.75-0.11-0.75
		s-0.34-0.34-0.79-0.34h-2.07c-0.56,0.04-0.86,0.38-0.86,0.38s-0.3,0.34-0.37,0.72l-3.21,18.29c-0.08,0.3-0.19,0.3-0.19,0.3
		s-0.15,0.04-0.19-0.26l-3.61-18.33c-0.04-0.41-0.38-0.75-0.38-0.75s-0.38-0.34-0.98-0.34h-2.14c-0.49,0-0.68,0.3-0.68,0.3
		s-0.22,0.34-0.11,0.79l5.31,24.69c0.12,0.49,0.42,0.79,0.42,0.79s0.27,0.3,0.89,0.3h2.97c0.53,0,0.91-0.3,0.91-0.3
		s0.3-0.34,0.37-0.75L313.24,471.1z"/>
	<path class="st2" d="M400.91,505.41c0.25,1.25-0.33,1.82-0.33,1.82s-0.59,0.5-1.66,0.5h-4.72c-0.99,0-1.58-0.5-1.58-0.5
		s-0.5-0.5-0.5-1.65l3.89-21.7c0.08-0.58,0.42-0.58,0.42-0.58s0.42,0,0.5,0.5L400.91,505.41z M414.24,526.62l-10.93-54.34
		c-0.17-1-0.83-1.74-0.83-1.74s-0.83-0.67-2.07-0.67h-7.87c-1.24,0-1.98,0.67-1.98,0.67s-0.66,0.75-0.74,1.58l-10.53,54.51
		c-0.25,1.16,0.42,1.82,0.42,1.82s0.74,0.67,1.4,0.58h4.32c1.32,0,1.98-0.74,1.98-0.74s0.66-0.66,0.84-1.58l1.57-8.12
		c0.08-0.83,0.91-1.74,0.91-1.74s0.92-0.91,1.82-0.75h7.87c1.24,0,1.99,0.75,1.99,0.75s0.74,0.83,0.91,1.74l1.66,8.04
		c0.33,0.99,0.91,1.66,0.91,1.66s0.66,0.66,1.9,0.74h4.4c1.08,0,1.65-0.58,1.65-0.58S414.49,527.78,414.24,526.62 M361.39,487.26
		c0,6.72-2.41,9.11-9.36,9.11h-0.99c-0.83,0.17-1.66-0.74-1.66-0.74s-0.91-0.83-0.75-1.66v-13.26c0-0.99,0.75-1.74,0.75-1.74
		s0.83-0.66,1.66-0.66h0.99C358.99,478.32,361.39,480.64,361.39,487.26 M370.84,526.62l-7.54-23.03c0-1.08,0.33-1.57,0.33-1.57
		c0.33-0.5,0.58-0.5,1.16-0.91c4.06-2.9,6.05-7.7,6.05-14.33c0-11.02-5.88-16.9-16.9-16.9h-12.1c-0.91,0-1.66,0.74-1.66,0.74
		s-0.65,0.75-0.65,1.67v54.42c0,1,0.58,1.65,0.58,1.65s0.66,0.66,1.65,0.66h4.56c1.08,0,1.66-0.66,1.66-0.66s0.66-0.66,0.66-1.65
		v-19.55c0-1.07,0.58-1.74,0.58-1.74s0.74-0.58,1.82-0.58h0.83c1.41,0,1.99,0.5,1.99,0.5s0.66,0.58,1.08,1.82l6.29,19.47
		c0.25,0.82,0.91,1.66,0.91,1.66s0.58,0.74,2.24,0.74h4.89c1.08-0.08,1.5-0.82,1.5-0.82S371.26,527.44,370.84,526.62 M290.98,526.7
		v-3.65c0-1.08-0.75-1.74-0.75-1.74s-0.74-0.74-1.65-0.74h-13.01c-1.08,0-1.65-0.67-1.65-0.67s-0.58-0.58-0.58-1.74v-13.42
		c0-1.08,0.67-1.74,0.67-1.74s0.66-0.66,1.57-0.75h11.11c0.91,0.09,1.66-0.66,1.66-0.66s0.74-0.74,0.66-1.66v-3.73
		c0-1.07-0.58-1.74-0.58-1.74s-0.66-0.66-1.74-0.66h-11.02c-1.07,0-1.74-0.67-1.74-0.67s-0.66-0.66-0.66-1.66v-10.43
		c0-1.33,0.66-2.07,0.66-2.07s0.75-0.66,1.74-0.66h13.01c0.99,0,1.65-0.58,1.65-0.58s0.58-0.67,0.58-1.74v-3.72
		c0-1.17-0.5-1.74-0.5-1.74s-0.58-0.67-1.82-0.67h-22.03c-0.91,0-1.66,0.84-1.66,0.84s-0.75,0.74-0.75,1.58v54.42
		c-0.08,0.91,0.66,1.65,0.66,1.65s0.66,0.66,1.74,0.66h22.03c0.99,0,1.74-0.66,1.74-0.66S290.98,527.61,290.98,526.7 M254.86,510.63
		c0-0.17,0-1.17-0.66-1.74c0,0-0.58-0.67-1.83-0.67h-4.22c-1.08,0-1.74,0.67-1.74,0.67c-0.58,0.57-0.67,1.41-0.67,1.66
		c-0.17,7.29-2.57,10.85-7.21,10.85c-5.05,0-6.8-3.23-6.8-12.76v-19.55c0-8.45,1.74-11.59,6.72-11.59c4.39,0,6.87,3.23,7.12,9.36
		c0.08,0.33,0.25,0.91,0.83,1.58c0,0,0.66,0.74,1.57,0.74h4.22c1.16,0,1.74-0.74,1.74-0.74c0.66-0.58,0.74-1.41,0.74-1.58
		c-0.17-11.27-6.13-17.89-16.15-17.89c-5.47,0-9.77,1.9-12.59,5.55c-2.74,3.56-3.39,6.71-3.39,16.4v16.49
		c0,8.94,0.66,12.01,2.9,15.9c2.48,4.14,7.29,6.62,13.17,6.62C249.23,529.93,254.79,523.22,254.86,510.63"/>
	<path class="st2" d="M482.45,470.98h-0.09c-1.98,0.03-3.83,0.85-5.21,2.33c-2.9,3.11-2.84,8.1,0.14,11.12l14.77,15.01l-14.77,15.01
		c-2.98,3.03-3.04,8.02-0.14,11.12c1.38,1.47,3.23,2.3,5.21,2.33c1.97,0.02,3.85-0.75,5.26-2.18l20.09-20.41
		c1.48-1.5,2.3-3.62,2.25-5.82l0-0.04l0-0.04c0.05-2.2-0.77-4.32-2.25-5.82l-20.09-20.41C486.23,471.76,484.4,470.98,482.45,470.98
		 M482.46,531.56c-0.05,0-0.1,0-0.14,0c-2.99-0.04-5.77-1.28-7.83-3.49c-4.23-4.52-4.14-11.79,0.2-16.2l12.24-12.43l-12.24-12.43
		c-4.34-4.41-4.43-11.68-0.2-16.2c2.07-2.21,4.85-3.45,7.83-3.49c2.99-0.02,5.79,1.12,7.91,3.28L510.31,491
		c2.16,2.19,3.36,5.27,3.3,8.44c0.06,3.17-1.14,6.24-3.3,8.44l-20.09,20.41C488.14,530.4,485.39,531.56,482.46,531.56"/>
	<path class="st2" d="M440.83,470.98h-0.09c-1.98,0.03-3.83,0.85-5.21,2.33c-2.9,3.11-2.84,8.1,0.14,11.12l14.77,15.01l-14.77,15.01
		c-2.98,3.03-3.04,8.02-0.14,11.12c1.38,1.47,3.23,2.3,5.21,2.33c2,0.02,3.85-0.75,5.26-2.18l20.09-20.41
		c1.48-1.5,2.3-3.62,2.25-5.82l0-0.04l0-0.04c0.05-2.2-0.77-4.32-2.25-5.82l-20.09-20.41C444.6,471.76,442.77,470.98,440.83,470.98
		 M440.83,531.56c-0.05,0-0.1,0-0.14,0c-2.99-0.04-5.77-1.28-7.83-3.49c-4.23-4.52-4.14-11.79,0.2-16.2l12.24-12.43l-12.24-12.43
		c-4.34-4.41-4.43-11.68-0.2-16.2c2.07-2.21,4.85-3.45,7.83-3.49c2.98-0.02,5.79,1.12,7.91,3.28L468.68,491
		c2.16,2.19,3.36,5.27,3.3,8.44c0.06,3.17-1.14,6.24-3.3,8.44l-20.09,20.41C446.51,530.4,443.76,531.56,440.83,531.56"/>
</g>
</svg>
